<?xml version="1.0" encoding="UTF-8"?>
<svg id="Layer_1" xmlns="http://www.w3.org/2000/svg" version="1.1" xmlns:xlink="http://www.w3.org/1999/xlink" viewBox="0 0 792.74 225.75">
  <!-- Generator: Adobe Illustrator 30.2.1, SVG Export Plug-In . SVG Version: 2.1.1 Build 1)  -->
  <defs>
    <style>
      .st0 {
        fill: none;
        stroke: #0064a2;
        stroke-width: 1.25px;
      }

      .st0, .st1, .st2 {
        stroke-miterlimit: 10;
      }

      .st1, .st3 {
        fill: #0064a2;
      }

      .st1, .st2 {
        stroke: #fff;
        stroke-width: .78px;
      }

      .st4 {
        fill: #62afe0;
      }

      .st5 {
        fill: #fff;
      }

      .st6 {
        fill: #efd6ad;
      }

      .st7 {
        fill: url(#linear-gradient);
      }

      .st8 {
        fill: #d81f37;
      }

      .st2 {
        fill: #0365a3;
      }
    </style>
    <linearGradient id="linear-gradient" x1="119.24" y1="66.42" x2="119.24" y2="46.32" gradientTransform="translate(0 225.53) scale(1 -1)" gradientUnits="userSpaceOnUse">
      <stop offset="0" stop-color="#64afe0"/>
      <stop offset="1" stop-color="#0064a2"/>
    </linearGradient>
  </defs>
  <g>
    <path class="st8" d="M261.96,67.71l-20.84-45.39v36.04c0,3.32.36,5.38,1.07,6.21.98,1.11,2.53,1.67,4.65,1.67h1.91v1.47h-18.78v-1.47h1.91c2.28,0,3.9-.69,4.85-2.07.58-.85.88-2.78.88-5.81V23.11c0-2.39-.27-4.11-.8-5.17-.37-.77-1.05-1.41-2.05-1.93s-2.59-.78-4.79-.78v-1.47h15.28l19.57,42.21,19.25-42.21h15.28v1.47h-1.87c-2.31,0-3.94.69-4.89,2.07-.58.85-.88,2.78-.88,5.81v35.25c0,3.32.37,5.38,1.11,6.21.98,1.11,2.53,1.67,4.65,1.67h1.87v1.47h-22.91v-1.47h1.91c2.31,0,3.92-.69,4.85-2.07.58-.85.88-2.78.88-5.81V22.32l-20.8,45.39h-1.31Z"/>
    <path class="st8" d="M309.73,44.99c-.03,5.41,1.29,9.65,3.94,12.73s5.77,4.61,9.35,4.61c2.39,0,4.46-.66,6.23-1.97,1.76-1.31,3.24-3.56,4.44-6.74l1.23.8c-.56,3.63-2.17,6.94-4.85,9.93-2.68,2.98-6.03,4.48-10.06,4.48-4.38,0-8.12-1.7-11.24-5.11-3.12-3.41-4.67-7.99-4.67-13.74,0-6.23,1.6-11.09,4.79-14.58,3.2-3.49,7.21-5.23,12.03-5.23,4.08,0,7.44,1.35,10.06,4.04,2.63,2.69,3.94,6.29,3.94,10.8h-25.18v-.02ZM309.73,42.68h16.87c-.13-2.33-.41-3.98-.84-4.93-.66-1.48-1.65-2.65-2.96-3.5s-2.69-1.27-4.12-1.27c-2.2,0-4.17.86-5.91,2.57s-2.75,4.09-3.04,7.14h0Z"/>
    <path class="st8" d="M360.41,62.45c-3.74,2.89-6.09,4.56-7.04,5.01-1.43.66-2.96.99-4.57.99-2.52,0-4.59-.86-6.23-2.59-1.63-1.72-2.45-3.99-2.45-6.8,0-1.78.4-3.31,1.19-4.61,1.09-1.8,2.98-3.5,5.67-5.09s7.17-3.53,13.43-5.81v-1.43c0-3.63-.58-6.13-1.73-7.48-1.15-1.35-2.83-2.03-5.03-2.03-1.67,0-3,.45-3.98,1.35-1.01.9-1.51,1.94-1.51,3.1l.08,2.31c0,1.22-.31,2.16-.94,2.82-.62.66-1.44.99-2.45.99s-1.78-.34-2.41-1.03c-.62-.69-.93-1.63-.93-2.82,0-2.28,1.17-4.38,3.5-6.29s5.61-2.86,9.83-2.86c3.24,0,5.89.54,7.96,1.63,1.56.82,2.72,2.11,3.46,3.86.48,1.14.72,3.47.72,7v12.37c0,3.47.07,5.6.2,6.38.13.78.35,1.31.66,1.57.3.27.66.4,1.05.4.42,0,.8-.09,1.11-.28.56-.34,1.63-1.31,3.22-2.9v2.23c-2.97,3.98-5.81,5.97-8.51,5.97-1.3,0-2.33-.45-3.1-1.35-.77-.9-1.17-2.44-1.19-4.61h0ZM360.41,59.87v-13.88c-4,1.59-6.59,2.72-7.76,3.38-2.1,1.17-3.59,2.39-4.5,3.66-.9,1.27-1.35,2.67-1.35,4.18,0,1.91.57,3.49,1.71,4.75,1.14,1.26,2.45,1.89,3.94,1.89,2.02,0,4.67-1.33,7.96-3.98h0Z"/>
    <path class="st8" d="M388.46,11.14v48.33c0,2.28.17,3.79.5,4.53s.84,1.31,1.53,1.69c.69.38,1.98.58,3.86.58v1.43h-17.86v-1.43c1.67,0,2.81-.17,3.42-.52.61-.34,1.09-.92,1.43-1.71.34-.8.52-2.32.52-4.57V26.37c0-4.11-.09-6.64-.28-7.58s-.48-1.58-.9-1.93c-.41-.34-.94-.52-1.57-.52-.69,0-1.57.21-2.63.64l-.68-1.39,10.86-4.46h1.8Z"/>
    <path class="st8" d="M422.11,30.19v12.41h-1.31c-1.01-3.9-2.3-6.55-3.88-7.96-1.58-1.41-3.59-2.11-6.03-2.11-1.86,0-3.36.49-4.5,1.47s-1.71,2.07-1.71,3.26c0,1.49.42,2.76,1.27,3.82.82,1.09,2.49,2.24,5.01,3.46l5.81,2.82c5.38,2.63,8.08,6.09,8.08,10.38,0,3.32-1.25,5.99-3.76,8.02s-5.31,3.04-8.41,3.04c-2.23,0-4.77-.4-7.64-1.19-.88-.26-1.59-.4-2.15-.4-.61,0-1.09.35-1.43,1.03h-1.31v-13.01h1.31c.74,3.71,2.16,6.51,4.26,8.39,2.09,1.88,4.44,2.82,7.04,2.82,1.83,0,3.32-.54,4.48-1.61s1.73-2.37,1.73-3.88c0-1.83-.64-3.37-1.93-4.61-1.29-1.25-3.85-2.82-7.7-4.73s-6.36-3.63-7.56-5.17c-1.19-1.51-1.79-3.42-1.79-5.73,0-3,1.03-5.5,3.08-7.52,2.06-2.02,4.71-3.02,7.98-3.02,1.43,0,3.17.31,5.21.91,1.35.4,2.25.6,2.71.6.42,0,.76-.09.99-.28.24-.19.52-.6.84-1.23h1.31v.02Z"/>
    <path class="st8" d="M468.46,30.19c5.52,0,9.95,2.1,13.29,6.29,2.84,3.58,4.26,7.69,4.26,12.33,0,3.26-.78,6.56-2.35,9.91-1.57,3.34-3.72,5.86-6.46,7.56-2.74,1.7-5.8,2.55-9.17,2.55-5.49,0-9.85-2.19-13.09-6.56-2.73-3.69-4.1-7.82-4.1-12.41,0-3.34.83-6.66,2.49-9.96s3.84-5.74,6.54-7.32c2.71-1.58,5.57-2.37,8.59-2.37v-.02ZM467.22,32.78c-1.41,0-2.82.42-4.24,1.25s-2.57,2.3-3.44,4.4c-.88,2.1-1.31,4.79-1.31,8.08,0,5.3,1.05,9.88,3.16,13.72,2.11,3.85,4.89,5.77,8.33,5.77,2.57,0,4.69-1.06,6.36-3.18,1.67-2.12,2.51-5.77,2.51-10.94,0-6.47-1.39-11.56-4.18-15.28-1.88-2.55-4.28-3.82-7.2-3.82h.01Z"/>
    <path class="st8" d="M501.99,37.91c4.27-5.15,8.34-7.72,12.21-7.72,1.99,0,3.7.5,5.13,1.49,1.43.99,2.57,2.63,3.42,4.91.58,1.59.88,4.03.88,7.32v15.55c0,2.31.18,3.87.56,4.69.29.66.76,1.18,1.41,1.55.65.37,1.85.56,3.6.56v1.43h-18.02v-1.43h.76c1.7,0,2.88-.26,3.56-.78.68-.52,1.15-1.28,1.41-2.29.11-.4.16-1.64.16-3.74v-14.92c0-3.31-.43-5.72-1.29-7.22s-2.31-2.25-4.36-2.25c-3.16,0-6.3,1.72-9.43,5.17v19.21c0,2.47.15,3.99.44,4.57.37.77.88,1.33,1.53,1.69s1.97.54,3.96.54v1.43h-18.02v-1.43h.8c1.86,0,3.11-.47,3.76-1.41.65-.94.97-2.74.97-5.39v-13.53c0-4.38-.1-7.04-.3-8-.2-.95-.5-1.6-.91-1.95-.41-.34-.96-.52-1.65-.52-.74,0-1.63.2-2.67.6l-.6-1.43,10.98-4.46h1.71v7.76Z"/>
    <path class="st8" d="M624.71,13.76v1.47c-1.41,0-2.55.25-3.42.76-.88.5-1.71,1.45-2.51,2.82-.53.93-1.37,3.14-2.51,6.64l-15.04,43.48h-1.59l-12.29-34.49-12.21,34.49h-1.43l-16.03-44.79c-1.19-3.34-1.95-5.32-2.27-5.93-.53-1.01-1.25-1.76-2.17-2.25s-2.16-.74-3.72-.74v-1.47h19.97v1.47h-.96c-1.41,0-2.48.32-3.22.95-.74.64-1.11,1.41-1.11,2.31s.58,3.06,1.75,6.4l10.62,30.27,8.95-25.74-1.59-4.54-1.27-3.62c-.56-1.33-1.18-2.49-1.87-3.5-.34-.5-.77-.93-1.27-1.27-.66-.48-1.33-.82-1.99-1.03-.5-.16-1.3-.24-2.39-.24v-1.47h21v1.47h-1.43c-1.49,0-2.57.32-3.26.95-.69.64-1.03,1.5-1.03,2.59,0,1.35.6,3.71,1.79,7.08l10.34,29.32,10.26-29.72c1.17-3.29,1.75-5.57,1.75-6.84,0-.61-.19-1.18-.58-1.71-.38-.53-.87-.9-1.45-1.11-1.01-.37-2.32-.56-3.94-.56v-1.47h16.11v.02Z"/>
    <path class="st8" d="M638.59,11.14v26.65c2.94-3.24,5.28-5.31,7-6.23,1.72-.92,3.45-1.37,5.17-1.37,2.07,0,3.85.57,5.33,1.71,1.48,1.14,2.59,2.93,3.3,5.37.5,1.7.76,4.8.76,9.31v12.89c0,2.31.18,3.89.56,4.73.26.64.72,1.14,1.35,1.51.64.37,1.8.56,3.5.56v1.43h-17.9v-1.43h.84c1.7,0,2.88-.26,3.54-.78s1.13-1.28,1.39-2.29c.08-.42.12-1.67.12-3.74v-12.89c0-3.98-.21-6.59-.62-7.84s-1.07-2.18-1.97-2.8c-.9-.62-1.99-.94-3.26-.94s-2.65.35-4.06,1.03c-1.41.69-3.09,2.08-5.05,4.18v19.25c0,2.49.14,4.04.42,4.65.28.61.8,1.12,1.55,1.53.76.41,2.06.62,3.92.62v1.43h-18.06v-1.43c1.62,0,2.89-.25,3.82-.76.53-.26.96-.77,1.27-1.51.32-.74.48-2.25.48-4.53V26.49c0-4.16-.1-6.72-.3-7.68-.2-.95-.5-1.6-.92-1.95-.41-.34-.96-.52-1.65-.52-.56,0-1.46.21-2.71.64l-.56-1.39,10.9-4.46h1.84Z"/>
    <path class="st8" d="M674.75,44.99c-.03,5.41,1.29,9.65,3.94,12.73s5.77,4.61,9.35,4.61c2.39,0,4.46-.66,6.22-1.97,1.76-1.31,3.24-3.56,4.44-6.74l1.23.8c-.56,3.63-2.17,6.94-4.85,9.93-2.68,2.98-6.03,4.48-10.06,4.48-4.38,0-8.12-1.7-11.24-5.11-3.12-3.41-4.67-7.99-4.67-13.74,0-6.23,1.6-11.09,4.79-14.58,3.2-3.49,7.21-5.23,12.03-5.23,4.08,0,7.44,1.35,10.06,4.04,2.63,2.69,3.94,6.29,3.94,10.8h-25.18v-.02ZM674.75,42.68h16.87c-.13-2.33-.41-3.98-.84-4.93-.66-1.48-1.65-2.65-2.96-3.5s-2.68-1.27-4.12-1.27c-2.2,0-4.17.86-5.91,2.57s-2.75,4.09-3.04,7.14h0Z"/>
    <path class="st8" d="M710.91,44.99c-.03,5.41,1.29,9.65,3.94,12.73s5.77,4.61,9.35,4.61c2.39,0,4.46-.66,6.22-1.97,1.76-1.31,3.24-3.56,4.44-6.74l1.23.8c-.56,3.63-2.17,6.94-4.85,9.93-2.68,2.98-6.03,4.48-10.06,4.48-4.38,0-8.12-1.7-11.24-5.11-3.12-3.41-4.67-7.99-4.67-13.74,0-6.23,1.6-11.09,4.79-14.58,3.2-3.49,7.21-5.23,12.03-5.23,4.08,0,7.44,1.35,10.06,4.04,2.63,2.69,3.94,6.29,3.94,10.8h-25.18v-.02ZM710.91,42.68h16.87c-.13-2.33-.41-3.98-.84-4.93-.66-1.48-1.65-2.65-2.96-3.5s-2.68-1.27-4.12-1.27c-2.2,0-4.17.86-5.91,2.57s-2.75,4.09-3.04,7.14h0Z"/>
    <path class="st8" d="M753.48,11.14v48.33c0,2.28.17,3.79.5,4.53s.84,1.31,1.53,1.69c.69.38,1.98.58,3.86.58v1.43h-17.86v-1.43c1.67,0,2.81-.17,3.42-.52.61-.34,1.09-.92,1.43-1.71.34-.8.52-2.32.52-4.57V26.37c0-4.11-.09-6.64-.28-7.58s-.48-1.58-.89-1.93c-.41-.34-.93-.52-1.57-.52-.69,0-1.57.21-2.63.64l-.68-1.39,10.86-4.46h1.79Z"/>
    <path class="st8" d="M787.13,30.19v12.41h-1.31c-1.01-3.9-2.3-6.55-3.88-7.96s-3.59-2.11-6.03-2.11c-1.86,0-3.36.49-4.5,1.47s-1.71,2.07-1.71,3.26c0,1.49.42,2.76,1.27,3.82.82,1.09,2.49,2.24,5.01,3.46l5.81,2.82c5.38,2.63,8.08,6.09,8.08,10.38,0,3.32-1.25,5.99-3.76,8.02s-5.31,3.04-8.41,3.04c-2.23,0-4.77-.4-7.64-1.19-.88-.26-1.59-.4-2.15-.4-.61,0-1.09.35-1.43,1.03h-1.31v-13.01h1.31c.74,3.71,2.16,6.51,4.26,8.39,2.09,1.88,4.44,2.82,7.04,2.82,1.83,0,3.32-.54,4.48-1.61s1.73-2.37,1.73-3.88c0-1.83-.64-3.37-1.93-4.61-1.29-1.25-3.85-2.82-7.7-4.73-3.85-1.91-6.36-3.63-7.56-5.17-1.19-1.51-1.79-3.42-1.79-5.73,0-3,1.03-5.5,3.08-7.52,2.06-2.02,4.71-3.02,7.98-3.02,1.43,0,3.17.31,5.21.91,1.35.4,2.25.6,2.71.6.42,0,.76-.09.99-.28.24-.19.52-.6.84-1.23h1.31v.02Z"/>
    <path class="st3" d="M273.4,92.08l1,14.81h-1c-1.33-4.43-3.22-7.62-5.69-9.57-2.46-1.95-5.42-2.92-8.87-2.92-2.89,0-5.51.73-7.84,2.2-2.33,1.47-4.17,3.81-5.51,7.02s-2.01,7.21-2.01,11.98c0,3.94.63,7.36,1.9,10.25,1.26,2.89,3.16,5.11,5.7,6.65s5.44,2.31,8.69,2.31c2.83,0,5.32-.61,7.49-1.82,2.16-1.21,4.54-3.62,7.13-7.21l1,.64c-2.19,3.88-4.73,6.72-7.65,8.51-2.91,1.8-6.37,2.7-10.38,2.7-7.22,0-12.81-2.68-16.77-8.03-2.96-3.98-4.43-8.68-4.43-14.07,0-4.35.97-8.34,2.92-11.98s4.63-6.46,8.05-8.47c3.42-2,7.15-3,11.2-3,3.15,0,6.25.77,9.32,2.31.9.47,1.54.71,1.93.71.58,0,1.08-.2,1.51-.61.56-.58.95-1.38,1.19-2.41h1.12Z"/>
    <path class="st3" d="M294.13,106.34c4.46,0,8.03,1.69,10.73,5.08,2.29,2.89,3.44,6.21,3.44,9.96,0,2.63-.63,5.3-1.9,8-1.26,2.7-3,4.73-5.22,6.11-2.22,1.37-4.69,2.06-7.41,2.06-4.43,0-7.96-1.77-10.57-5.3-2.21-2.98-3.31-6.32-3.31-10.03,0-2.7.67-5.38,2.01-8.05,1.34-2.67,3.1-4.64,5.29-5.91,2.19-1.27,4.5-1.91,6.94-1.91h0ZM293.13,108.43c-1.14,0-2.28.34-3.42,1.01-1.15.67-2.07,1.86-2.78,3.55s-1.06,3.87-1.06,6.52c0,4.28.85,7.98,2.55,11.08,1.7,3.11,3.95,4.66,6.73,4.66,2.08,0,3.79-.86,5.14-2.57s2.02-4.66,2.02-8.84c0-5.23-1.12-9.34-3.37-12.34-1.52-2.06-3.46-3.08-5.82-3.08h.01Z"/>
    <path class="st3" d="M321.37,112.61c2.14-2.14,3.41-3.37,3.79-3.69.96-.81,2-1.45,3.12-1.9,1.11-.45,2.22-.67,3.31-.67,1.84,0,3.43.54,4.75,1.61,1.33,1.07,2.22,2.62,2.67,4.66,2.21-2.57,4.07-4.26,5.59-5.06s3.08-1.2,4.69-1.2,2.95.4,4.16,1.2c1.21.8,2.17,2.12,2.88,3.94.47,1.24.71,3.19.71,5.85v12.66c0,1.84.14,3.11.42,3.79.21.47.61.87,1.19,1.21.58.33,1.52.5,2.83.5v1.16h-14.52v-1.16h.61c1.26,0,2.25-.25,2.96-.74.49-.34.85-.89,1.06-1.64.09-.36.13-1.4.13-3.12v-12.66c0-2.4-.29-4.09-.87-5.08-.84-1.37-2.17-2.06-4.02-2.06-1.14,0-2.28.28-3.42.85-1.15.57-2.53,1.62-4.16,3.16l-.06.35.06,1.38v14.04c0,2.01.11,3.27.34,3.76.23.49.65.91,1.27,1.24s1.68.5,3.18.5v1.16h-14.88v-1.16c1.63,0,2.75-.19,3.36-.58.61-.38,1.03-.96,1.27-1.73.11-.36.16-1.42.16-3.18v-12.66c0-2.4-.35-4.12-1.06-5.17-.94-1.37-2.26-2.06-3.95-2.06-1.16,0-2.3.31-3.44.93-1.78.94-3.15,2-4.11,3.18v15.78c0,1.93.13,3.18.4,3.76s.66,1.01,1.19,1.3c.52.29,1.59.43,3.2.43v1.16h-14.55v-1.16c1.35,0,2.29-.14,2.83-.43.54-.29.94-.75,1.22-1.38s.42-1.86.42-3.68v-11.25c0-3.23-.1-5.32-.29-6.27-.15-.71-.39-1.19-.71-1.46-.32-.27-.76-.4-1.32-.4-.6,0-1.32.16-2.15.48l-.48-1.16,8.87-3.6h1.38v6.27h-.03Z"/>
    <path class="st3" d="M372.56,112.61c2.14-2.14,3.41-3.37,3.79-3.69.96-.81,2-1.45,3.12-1.9,1.11-.45,2.22-.67,3.31-.67,1.84,0,3.43.54,4.75,1.61,1.33,1.07,2.22,2.62,2.67,4.66,2.21-2.57,4.07-4.26,5.59-5.06s3.08-1.2,4.69-1.2,2.95.4,4.16,1.2,2.17,2.12,2.88,3.94c.47,1.24.71,3.19.71,5.85v12.66c0,1.84.14,3.11.42,3.79.21.47.61.87,1.19,1.21s1.52.5,2.83.5v1.16h-14.52v-1.16h.61c1.26,0,2.25-.25,2.96-.74.49-.34.85-.89,1.06-1.64.08-.36.13-1.4.13-3.12v-12.66c0-2.4-.29-4.09-.87-5.08-.83-1.37-2.17-2.06-4.02-2.06-1.14,0-2.28.28-3.42.85-1.15.57-2.53,1.62-4.16,3.16l-.06.35.06,1.38v14.04c0,2.01.11,3.27.34,3.76.23.49.65.91,1.27,1.24s1.68.5,3.18.5v1.16h-14.88v-1.16c1.63,0,2.75-.19,3.36-.58.61-.38,1.03-.96,1.27-1.73.11-.36.16-1.42.16-3.18v-12.66c0-2.4-.35-4.12-1.06-5.17-.94-1.37-2.26-2.06-3.95-2.06-1.16,0-2.3.31-3.44.93-1.78.94-3.15,2-4.11,3.18v15.78c0,1.93.13,3.18.4,3.76s.66,1.01,1.19,1.3c.52.29,1.59.43,3.2.43v1.16h-14.55v-1.16c1.35,0,2.29-.14,2.83-.43.54-.29.94-.75,1.22-1.38s.42-1.86.42-3.68v-11.25c0-3.23-.1-5.32-.29-6.27-.15-.71-.39-1.19-.71-1.46-.32-.27-.76-.4-1.32-.4-.6,0-1.32.16-2.15.48l-.48-1.16,8.87-3.6h1.38v6.27h-.03Z"/>
    <path class="st3" d="M440.8,107.21v17.83c0,3.41.08,5.49.24,6.25.16.76.42,1.29.77,1.59.35.3.77.45,1.24.45.66,0,1.41-.18,2.25-.55l.45,1.12-8.8,3.63h-1.45v-6.23c-2.53,2.74-4.46,4.47-5.78,5.17-1.33.71-2.73,1.06-4.21,1.06-1.65,0-3.08-.48-4.29-1.43s-2.05-2.18-2.52-3.68-.71-3.62-.71-6.36v-13.14c0-1.39-.15-2.36-.45-2.89-.3-.54-.75-.95-1.33-1.24-.59-.29-1.65-.42-3.2-.4v-1.19h10.31v19.7c0,2.74.48,4.54,1.43,5.4.95.86,2.1,1.29,3.45,1.29.92,0,1.96-.29,3.13-.87s2.55-1.68,4.16-3.31v-16.68c0-1.67-.31-2.8-.92-3.39-.61-.59-1.88-.9-3.81-.95v-1.19h10.04Z"/>
    <path class="st3" d="M456.48,112.58c3.45-4.16,6.74-6.23,9.86-6.23,1.61,0,2.99.4,4.14,1.2,1.16.8,2.08,2.13,2.76,3.97.47,1.29.71,3.26.71,5.91v12.56c0,1.86.15,3.13.45,3.79.24.54.62.95,1.14,1.25.52.3,1.49.45,2.91.45v1.16h-14.56v-1.16h.61c1.37,0,2.33-.21,2.88-.63s.93-1.03,1.14-1.85c.09-.32.13-1.33.13-3.02v-12.05c0-2.68-.35-4.62-1.04-5.83-.7-1.21-1.87-1.82-3.52-1.82-2.55,0-5.09,1.39-7.62,4.18v15.52c0,1.99.12,3.22.35,3.7.3.62.71,1.08,1.24,1.37.52.29,1.59.43,3.2.43v1.16h-14.55v-1.16h.64c1.5,0,2.51-.38,3.04-1.14s.79-2.21.79-4.35v-10.92c0-3.53-.08-5.69-.24-6.46s-.41-1.3-.74-1.57-.78-.42-1.33-.42c-.6,0-1.32.16-2.15.48l-.48-1.16,8.87-3.6h1.38v6.23h-.01Z"/>
    <path class="st3" d="M490.95,106.34v23.65c0,1.84.13,3.07.4,3.68.27.61.66,1.07,1.19,1.37.52.3,1.48.45,2.88.45v1.16h-14.3v-1.16c1.43,0,2.4-.14,2.89-.42.49-.28.88-.74,1.17-1.38s.43-1.87.43-3.7v-11.34c0-3.19-.1-5.26-.29-6.2-.15-.69-.39-1.16-.71-1.43-.32-.27-.76-.4-1.32-.4-.6,0-1.33.16-2.18.48l-.45-1.16,8.87-3.6h1.42ZM488.29,90.95c.9,0,1.67.32,2.3.95s.95,1.4.95,2.3-.32,1.67-.95,2.31-1.4.96-2.3.96-1.67-.32-2.31-.96-.96-1.41-.96-2.31.32-1.67.95-2.3,1.41-.95,2.33-.95h-.01Z"/>
    <path class="st3" d="M507.63,97.54v9.67h6.88v2.25h-6.88v19.09c0,1.91.27,3.19.82,3.86.55.66,1.25,1,2.1,1,.71,0,1.39-.22,2.06-.66.66-.44,1.18-1.09,1.54-1.94h1.25c-.75,2.1-1.81,3.68-3.18,4.74s-2.78,1.59-4.24,1.59c-.99,0-1.95-.27-2.89-.82s-1.64-1.33-2.09-2.35c-.45-1.02-.67-2.59-.67-4.71v-19.79h-4.66v-1.06c1.18-.47,2.38-1.27,3.61-2.39s2.33-2.46,3.29-4c.49-.81,1.18-2.3,2.06-4.47h1Z"/>
    <path class="st3" d="M515.69,107.21h13.72v1.19h-.67c-.96,0-1.69.21-2.17.63s-.72.94-.72,1.56c0,.83.35,1.99,1.06,3.47l7.17,14.84,6.59-16.26c.36-.88.55-1.75.55-2.6,0-.39-.08-.67-.22-.87-.17-.24-.44-.42-.8-.56s-1.01-.21-1.93-.21v-1.19h9.58v1.19c-.79.09-1.4.26-1.83.51-.43.26-.9.74-1.41,1.45-.19.3-.56,1.12-1.09,2.47l-11.98,29.37c-1.16,2.85-2.67,5-4.55,6.46s-3.68,2.18-5.41,2.18c-1.26,0-2.3-.36-3.12-1.09-.81-.73-1.22-1.56-1.22-2.51s.29-1.62.88-2.17,1.4-.82,2.43-.82c.71,0,1.67.24,2.89.71.86.32,1.39.48,1.61.48.64,0,1.34-.33,2.1-1,.76-.66,1.53-1.95,2.3-3.86l2.09-5.11-10.57-22.2c-.32-.66-.84-1.49-1.54-2.47-.54-.75-.97-1.25-1.32-1.51-.49-.34-1.29-.64-2.38-.9v-1.19h-.04Z"/>
    <path class="st3" d="M594.83,92.08v15.07h-1.19c-.39-2.89-1.08-5.19-2.07-6.91-1-1.71-2.42-3.07-4.26-4.08s-3.75-1.51-5.72-1.51c-2.23,0-4.07.68-5.53,2.04s-2.18,2.91-2.18,4.64c0,1.33.46,2.54,1.38,3.63,1.33,1.61,4.49,3.75,9.48,6.43,4.07,2.18,6.85,3.86,8.34,5.03,1.49,1.17,2.63,2.54,3.44,4.13.8,1.58,1.21,3.25,1.21,4.98,0,3.3-1.28,6.14-3.84,8.53s-5.85,3.58-9.88,3.58c-1.26,0-2.45-.1-3.57-.29-.66-.11-2.04-.5-4.13-1.17s-3.41-1.01-3.97-1.01-.96.16-1.27.48c-.31.32-.54.99-.69,1.99h-1.19v-14.94h1.19c.56,3.13,1.31,5.47,2.25,7.02s2.38,2.84,4.32,3.87,4.06,1.54,6.38,1.54c2.68,0,4.79-.71,6.34-2.12,1.55-1.41,2.33-3.08,2.33-5.01,0-1.07-.29-2.15-.88-3.25-.59-1.09-1.5-2.11-2.75-3.05-.83-.64-3.12-2.01-6.84-4.1-3.73-2.09-6.38-3.75-7.95-5-1.57-1.24-2.77-2.61-3.58-4.11s-1.22-3.15-1.22-4.95c0-3.13,1.2-5.82,3.6-8.08s5.45-3.39,9.16-3.39c2.31,0,4.77.57,7.36,1.7,1.2.54,2.05.8,2.54.8.56,0,1.01-.17,1.37-.5.35-.33.64-1,.85-2.01h1.19l-.02.02Z"/>
    <path class="st3" d="M608.26,118.3c-.02,4.37,1.04,7.8,3.18,10.28,2.14,2.49,4.66,3.73,7.55,3.73,1.93,0,3.6-.53,5.03-1.59,1.42-1.06,2.62-2.88,3.58-5.45l1,.64c-.45,2.93-1.76,5.61-3.92,8.02s-4.87,3.61-8.13,3.61c-3.53,0-6.56-1.38-9.08-4.13s-3.78-6.45-3.78-11.1c0-5.03,1.29-8.96,3.87-11.78s5.82-4.23,9.72-4.23c3.3,0,6.01,1.09,8.13,3.26,2.12,2.17,3.18,5.08,3.18,8.72h-20.34v.02ZM608.26,116.43h13.62c-.11-1.88-.33-3.21-.67-3.98-.54-1.2-1.33-2.14-2.39-2.83s-2.17-1.03-3.33-1.03c-1.78,0-3.37.69-4.77,2.07s-2.22,3.3-2.46,5.77h0Z"/>
    <path class="st3" d="M641.13,106.34v6.62c2.46-4.41,4.99-6.62,7.58-6.62,1.18,0,2.15.36,2.92,1.08.77.72,1.16,1.55,1.16,2.49,0,.84-.28,1.54-.83,2.12-.56.58-1.22.87-1.99.87s-1.59-.37-2.52-1.11-1.62-1.11-2.07-1.11c-.39,0-.8.21-1.25.64-.96.88-1.96,2.32-2.99,4.34v14.1c0,1.63.2,2.86.61,3.7.28.58.77,1.06,1.48,1.45.71.39,1.72.58,3.05.58v1.16h-15.07v-1.16c1.5,0,2.61-.24,3.34-.71.54-.34.91-.89,1.12-1.64.11-.36.16-1.4.16-3.12v-11.41c0-3.43-.07-5.47-.21-6.12s-.4-1.13-.77-1.43c-.38-.3-.84-.45-1.4-.45-.66,0-1.41.16-2.25.48l-.32-1.16,8.9-3.6h1.35Z"/>
    <path class="st3" d="M652.92,107.21h13.85v1.19h-.9c-.83,0-1.47.2-1.91.61s-.66.95-.66,1.64c0,.75.23,1.64.67,2.67l6.84,16.26,6.88-16.87c.49-1.2.74-2.11.74-2.73,0-.3-.09-.55-.26-.74-.24-.32-.54-.54-.9-.66-.36-.12-1.1-.18-2.22-.18v-1.19h9.61v1.19c-1.11.09-1.89.31-2.31.67-.75.64-1.42,1.71-2.02,3.21l-10.44,25.25h-1.32l-10.51-24.84c-.47-1.16-.92-1.99-1.35-2.49s-.98-.93-1.64-1.27c-.37-.19-1.08-.37-2.15-.55v-1.19.02Z"/>
    <path class="st3" d="M697.48,106.34v23.65c0,1.84.13,3.07.4,3.68.27.61.66,1.07,1.19,1.37.52.3,1.48.45,2.88.45v1.16h-14.3v-1.16c1.43,0,2.4-.14,2.89-.42s.88-.74,1.17-1.38.43-1.87.43-3.7v-11.34c0-3.19-.1-5.26-.29-6.2-.15-.69-.39-1.16-.71-1.43s-.76-.4-1.32-.4c-.6,0-1.33.16-2.18.48l-.45-1.16,8.87-3.6h1.42ZM694.82,90.95c.9,0,1.67.32,2.3.95s.95,1.4.95,2.3-.32,1.67-.95,2.31-1.4.96-2.3.96-1.67-.32-2.31-.96-.96-1.41-.96-2.31.32-1.67.95-2.3,1.41-.95,2.33-.95h-.01Z"/>
    <path class="st3" d="M730.61,125.46c-.79,3.88-2.35,6.86-4.66,8.95-2.31,2.09-4.87,3.13-7.68,3.13-3.34,0-6.25-1.4-8.74-4.21-2.49-2.81-3.73-6.6-3.73-11.37s1.38-8.39,4.13-11.28,6.06-4.34,9.91-4.34c2.89,0,5.27.77,7.13,2.3,1.86,1.53,2.79,3.12,2.79,4.77,0,.81-.26,1.47-.79,1.98-.53.5-1.26.75-2.2.75-1.26,0-2.22-.41-2.86-1.22-.36-.45-.61-1.31-.72-2.57-.12-1.26-.55-2.23-1.3-2.89-.75-.64-1.79-.96-3.12-.96-2.14,0-3.87.79-5.17,2.38-1.74,2.1-2.6,4.87-2.6,8.32s.86,6.61,2.59,9.3c1.72,2.69,4.05,4.03,6.99,4.03,2.1,0,3.98-.72,5.65-2.15,1.18-.98,2.32-2.77,3.44-5.37l.93.45h0Z"/>
    <path class="st3" d="M739.77,118.3c-.02,4.37,1.04,7.8,3.18,10.28,2.14,2.49,4.66,3.73,7.55,3.73,1.93,0,3.6-.53,5.03-1.59,1.42-1.06,2.62-2.88,3.58-5.45l1,.64c-.45,2.93-1.76,5.61-3.92,8.02s-4.87,3.61-8.13,3.61c-3.53,0-6.56-1.38-9.08-4.13s-3.78-6.45-3.78-11.1c0-5.03,1.29-8.96,3.87-11.78s5.82-4.23,9.72-4.23c3.3,0,6.01,1.09,8.13,3.26,2.12,2.17,3.18,5.08,3.18,8.72h-20.34v.02ZM739.77,116.43h13.62c-.11-1.88-.33-3.21-.67-3.98-.54-1.2-1.33-2.14-2.39-2.83s-2.17-1.03-3.33-1.03c-1.78,0-3.37.69-4.77,2.07s-2.22,3.3-2.46,5.77h0Z"/>
    <path class="st3" d="M783.05,106.34v10.02h-1.06c-.81-3.15-1.86-5.29-3.13-6.43-1.27-1.13-2.9-1.7-4.87-1.7-1.5,0-2.71.4-3.63,1.19s-1.38,1.67-1.38,2.63c0,1.2.34,2.23,1.03,3.08.66.88,2.01,1.81,4.05,2.8l4.69,2.28c4.35,2.12,6.52,4.92,6.52,8.39,0,2.68-1.01,4.83-3.04,6.47s-4.29,2.46-6.79,2.46c-1.8,0-3.86-.32-6.17-.96-.71-.21-1.29-.32-1.74-.32-.49,0-.88.28-1.16.84h-1.06v-10.51h1.06c.6,3,1.75,5.26,3.44,6.78s3.59,2.28,5.69,2.28c1.48,0,2.68-.43,3.62-1.3.93-.87,1.4-1.91,1.4-3.13,0-1.48-.52-2.72-1.56-3.73s-3.11-2.28-6.22-3.82-5.14-2.93-6.1-4.18c-.96-1.22-1.45-2.76-1.45-4.63,0-2.42.83-4.44,2.49-6.07s3.81-2.44,6.44-2.44c1.16,0,2.56.25,4.21.74,1.09.32,1.82.48,2.18.48.34,0,.61-.07.8-.22s.42-.48.67-1h1.07Z"/>
    <path class="st3" d="M390.08,161.01v15.07h-1.19c-.39-2.89-1.08-5.19-2.07-6.91-1-1.71-2.42-3.07-4.26-4.08s-3.75-1.51-5.72-1.51c-2.23,0-4.07.68-5.53,2.04s-2.19,2.91-2.19,4.64c0,1.33.46,2.54,1.38,3.63,1.33,1.61,4.49,3.75,9.48,6.43,4.07,2.18,6.85,3.86,8.34,5.03s2.63,2.54,3.44,4.13,1.2,3.25,1.2,4.98c0,3.3-1.28,6.14-3.84,8.53s-5.85,3.58-9.88,3.58c-1.26,0-2.45-.1-3.57-.29-.66-.11-2.04-.5-4.13-1.17s-3.41-1.01-3.97-1.01-.96.16-1.27.48c-.31.32-.54.99-.69,1.99h-1.19v-14.94h1.19c.56,3.13,1.31,5.47,2.25,7.02s2.38,2.84,4.32,3.87,4.06,1.54,6.38,1.54c2.68,0,4.79-.71,6.35-2.12,1.55-1.41,2.33-3.08,2.33-5.01,0-1.07-.29-2.15-.88-3.25-.59-1.09-1.5-2.11-2.75-3.05-.84-.64-3.12-2.01-6.84-4.1-3.73-2.09-6.38-3.75-7.95-5s-2.77-2.61-3.58-4.11-1.22-3.15-1.22-4.95c0-3.13,1.2-5.82,3.6-8.08s5.45-3.39,9.16-3.39c2.31,0,4.77.57,7.36,1.7,1.2.54,2.04.8,2.54.8.56,0,1.01-.17,1.37-.5s.64-1,.85-2.01h1.19v.02Z"/>
    <path class="st3" d="M412.96,175.28c4.46,0,8.03,1.69,10.73,5.08,2.29,2.89,3.44,6.21,3.44,9.96,0,2.63-.63,5.3-1.9,8-1.26,2.7-3,4.73-5.22,6.11-2.22,1.37-4.69,2.06-7.41,2.06-4.43,0-7.96-1.77-10.57-5.3-2.21-2.98-3.31-6.32-3.31-10.03,0-2.7.67-5.38,2.01-8.05s3.1-4.64,5.29-5.91c2.18-1.27,4.5-1.91,6.94-1.91h0ZM411.96,177.37c-1.13,0-2.28.34-3.42,1.01-1.15.67-2.07,1.86-2.78,3.55s-1.06,3.87-1.06,6.52c0,4.28.85,7.98,2.55,11.08,1.7,3.11,3.95,4.66,6.73,4.66,2.08,0,3.79-.86,5.14-2.57s2.02-4.66,2.02-8.84c0-5.23-1.12-9.34-3.37-12.34-1.52-2.06-3.46-3.08-5.82-3.08h.01Z"/>
    <path class="st3" d="M457.27,176.15v17.83c0,3.41.08,5.49.24,6.25s.42,1.29.77,1.59c.35.3.77.45,1.24.45.66,0,1.41-.18,2.25-.55l.45,1.12-8.8,3.63h-1.45v-6.23c-2.53,2.74-4.46,4.47-5.78,5.17-1.33.71-2.73,1.06-4.21,1.06-1.65,0-3.08-.48-4.29-1.43s-2.05-2.18-2.52-3.68-.71-3.62-.71-6.36v-13.14c0-1.39-.15-2.36-.45-2.89-.3-.54-.75-.95-1.33-1.24s-1.65-.42-3.2-.4v-1.19h10.31v19.7c0,2.74.48,4.54,1.43,5.4.95.86,2.1,1.29,3.45,1.29.92,0,1.96-.29,3.13-.87s2.55-1.68,4.16-3.31v-16.67c0-1.67-.31-2.8-.92-3.39s-1.88-.91-3.81-.95v-1.19h10.04Z"/>
    <path class="st3" d="M472.91,166.47v9.67h6.88v2.25h-6.88v19.08c0,1.91.27,3.19.82,3.86.55.66,1.25,1,2.1,1,.71,0,1.39-.22,2.06-.66.66-.44,1.18-1.09,1.54-1.94h1.25c-.75,2.1-1.81,3.68-3.18,4.74s-2.78,1.59-4.24,1.59c-.99,0-1.95-.27-2.89-.82s-1.64-1.33-2.09-2.35c-.45-1.02-.67-2.59-.67-4.71v-19.79h-4.66v-1.06c1.18-.47,2.38-1.27,3.61-2.39,1.23-1.12,2.33-2.46,3.29-4,.49-.81,1.18-2.3,2.06-4.47h1Z"/>
    <path class="st3" d="M491.29,159.89v21.53c2.38-2.61,4.26-4.29,5.66-5.03,1.39-.74,2.78-1.11,4.18-1.11,1.67,0,3.11.46,4.3,1.38,1.2.92,2.09,2.37,2.67,4.34.41,1.37.61,3.88.61,7.52v10.41c0,1.86.15,3.14.45,3.82.21.51.58.92,1.09,1.22s1.46.45,2.83.45v1.16h-14.46v-1.16h.67c1.37,0,2.32-.21,2.86-.63.54-.42.91-1.03,1.12-1.85.06-.34.1-1.35.1-3.02v-10.41c0-3.21-.17-5.32-.5-6.33s-.86-1.76-1.59-2.26-1.61-.76-2.63-.76-2.14.28-3.28.84c-1.13.56-2.5,1.68-4.08,3.37v15.55c0,2.01.11,3.27.34,3.76.22.49.64.91,1.25,1.24s1.67.5,3.16.5v1.16h-14.59v-1.16c1.31,0,2.33-.2,3.08-.61.43-.21.77-.62,1.03-1.22s.38-1.82.38-3.66v-26.63c0-3.36-.08-5.43-.24-6.2s-.41-1.3-.74-1.58-.78-.42-1.33-.42c-.45,0-1.18.17-2.19.51l-.45-1.12,8.8-3.6h1.5Z"/>
    <path class="st3" d="M556.42,190.99h-16.87l-2.96,6.88c-.73,1.69-1.09,2.96-1.09,3.79,0,.66.32,1.25.95,1.75s2,.83,4.1.98v1.19h-13.72v-1.19c1.82-.32,3-.74,3.54-1.25,1.09-1.03,2.3-3.12,3.63-6.27l15.33-35.86h1.12l15.17,36.24c1.22,2.91,2.33,4.8,3.33,5.67s2.38,1.35,4.16,1.46v1.19h-17.19v-1.19c1.74-.09,2.91-.38,3.52-.87.61-.49.92-1.09.92-1.8,0-.94-.43-2.43-1.29-4.47l-2.63-6.27-.02.02ZM555.52,188.61l-7.39-17.61-7.58,17.61h14.97Z"/>
    <path class="st3" d="M587.39,178.46v19.34c0,2.74.3,4.48.9,5.21.79.94,1.85,1.41,3.18,1.41h2.67v1.16h-17.57v-1.16h1.32c.86,0,1.64-.21,2.34-.64s1.19-1.01,1.46-1.74.4-2.14.4-4.24v-19.34h-5.72v-2.31h5.72v-1.93c0-2.93.47-5.42,1.41-7.45s2.38-3.68,4.32-4.93,4.12-1.88,6.54-1.88c2.25,0,4.32.73,6.2,2.18,1.24.96,1.86,2.05,1.86,3.25,0,.64-.28,1.25-.84,1.82s-1.16.85-1.8.85c-.49,0-1.01-.18-1.56-.53s-1.22-1.11-2.01-2.28c-.79-1.17-1.52-1.96-2.18-2.36-.66-.41-1.4-.61-2.22-.61-.99,0-1.82.26-2.51.79s-1.18,1.34-1.48,2.44-.45,3.95-.45,8.53v2.12h7.58v2.31h-7.58.02Z"/>
    <path class="st3" d="M606.41,175.28v6.62c2.46-4.41,4.99-6.62,7.58-6.62,1.18,0,2.15.36,2.92,1.08.77.72,1.16,1.55,1.16,2.49,0,.84-.28,1.54-.83,2.12-.56.58-1.22.87-1.99.87s-1.59-.37-2.52-1.11-1.62-1.11-2.07-1.11c-.39,0-.8.21-1.25.64-.96.88-1.96,2.32-2.99,4.34v14.1c0,1.63.2,2.86.61,3.7.28.58.77,1.06,1.48,1.45.71.39,1.72.58,3.05.58v1.16h-15.07v-1.16c1.5,0,2.61-.24,3.34-.71.54-.34.91-.89,1.12-1.64.11-.36.16-1.4.16-3.12v-11.41c0-3.43-.07-5.47-.21-6.12s-.4-1.13-.77-1.43c-.38-.3-.84-.45-1.4-.45-.66,0-1.41.16-2.25.48l-.32-1.16,8.9-3.6h1.35Z"/>
    <path class="st3" d="M629.87,175.28v23.65c0,1.84.13,3.07.4,3.68.27.61.66,1.07,1.19,1.37.52.3,1.48.45,2.88.45v1.16h-14.3v-1.16c1.43,0,2.4-.14,2.89-.42s.88-.74,1.17-1.38.43-1.87.43-3.7v-11.34c0-3.19-.1-5.26-.29-6.2-.15-.69-.39-1.16-.71-1.43-.32-.27-.76-.4-1.32-.4-.6,0-1.33.16-2.18.48l-.45-1.16,8.87-3.6h1.42ZM627.2,159.89c.9,0,1.67.32,2.3.95.63.63.95,1.4.95,2.3s-.32,1.67-.95,2.31-1.4.96-2.3.96-1.67-.32-2.31-.96-.96-1.41-.96-2.31.32-1.67.95-2.3,1.41-.95,2.33-.95h-.01Z"/>
    <path class="st3" d="M662.99,194.4c-.79,3.88-2.35,6.86-4.66,8.95s-4.87,3.13-7.68,3.13c-3.34,0-6.25-1.4-8.74-4.21-2.49-2.81-3.73-6.6-3.73-11.37s1.38-8.39,4.13-11.28,6.06-4.34,9.91-4.34c2.89,0,5.27.77,7.13,2.3s2.79,3.12,2.79,4.77c0,.81-.26,1.47-.79,1.98-.53.5-1.26.75-2.2.75-1.26,0-2.22-.41-2.86-1.22-.36-.45-.61-1.31-.72-2.57-.12-1.26-.55-2.23-1.3-2.89-.75-.64-1.79-.96-3.12-.96-2.14,0-3.87.79-5.17,2.38-1.74,2.1-2.6,4.87-2.6,8.32s.86,6.61,2.59,9.3c1.72,2.69,4.05,4.03,6.99,4.03,2.1,0,3.98-.72,5.65-2.15,1.18-.98,2.32-2.77,3.44-5.37l.93.45h0Z"/>
    <path class="st3" d="M683.88,201.34c-3.02,2.33-4.92,3.68-5.69,4.05-1.16.54-2.39.8-3.7.8-2.04,0-3.71-.7-5.03-2.09s-1.98-3.22-1.98-5.5c0-1.43.32-2.68.96-3.73.88-1.46,2.4-2.83,4.58-4.11s5.79-2.85,10.84-4.69v-1.16c0-2.93-.47-4.95-1.4-6.04-.93-1.09-2.29-1.64-4.06-1.64-1.35,0-2.42.37-3.21,1.09-.81.73-1.22,1.56-1.22,2.51l.06,1.86c0,.99-.25,1.75-.76,2.28-.5.54-1.16.8-1.98.8s-1.44-.28-1.94-.83c-.5-.56-.75-1.32-.75-2.28,0-1.84.94-3.54,2.83-5.08,1.88-1.54,4.53-2.31,7.94-2.31,2.61,0,4.76.44,6.43,1.32,1.26.66,2.2,1.7,2.8,3.12.39.92.58,2.81.58,5.65v9.99c0,2.81.05,4.53.16,5.16s.28,1.06.53,1.27.53.32.85.32c.34,0,.64-.08.9-.23.45-.28,1.32-1.06,2.6-2.34v1.8c-2.4,3.21-4.69,4.82-6.88,4.82-1.05,0-1.89-.36-2.51-1.09s-.94-1.97-.96-3.73h.01ZM683.88,199.25v-11.21c-3.23,1.29-5.32,2.2-6.26,2.73-1.69.94-2.9,1.93-3.63,2.96-.73,1.03-1.09,2.15-1.09,3.37,0,1.54.46,2.82,1.38,3.84s1.98,1.53,3.18,1.53c1.63,0,3.77-1.07,6.43-3.21h0Z"/>
  </g>
  <g>
    <path class="st7" d="M122.38,179.21c69.08,0,74.02-17.39,77.95-20.1H38.15c8.07,5.82,12.63,20.1,84.22,20.1h0Z"/>
    <ellipse class="st4" cx="119.31" cy="156.1" rx="84.4" ry="13.7"/>
    <ellipse class="st0" cx="119.24" cy="156.1" rx="81.09" ry="11.09"/>
    <path class="st8" d="M214.59,179.35c.89.83.87,2.26-.06,3.04-22.69,19.03-54.6,30.92-89.89,30.92C55.9,213.31,0,168.25,0,112.88S55.9,12.45,124.65,12.45c34.99,0,66.67,11.67,89.32,30.44.86.71.92,2.02.16,2.83l-3.94,4.17-1,1.07c-21.06-17.92-51.14-29.14-84.54-29.14C61.01,21.82,9.4,62.59,9.4,112.88s51.61,91.06,115.25,91.06c33.56,0,63.73-11.31,84.82-29.39l1.03,1,4.09,3.8Z"/>
    <path class="st6" d="M207.04,172.3c-.74-.69-1.87-.71-2.64-.05-19.99,16.79-48.34,27.27-79.75,27.27-60.41,0-109.58-38.89-109.58-86.67S64.24,26.21,124.65,26.21c31.36,0,59.7,10.48,79.7,27.22.78.65,1.91.6,2.61-.14l2.23-2.33c-21.06-17.92-51.14-29.14-84.54-29.14C61.01,21.82,9.4,62.59,9.4,112.88s51.61,91.06,115.25,91.06c33.56,0,63.73-11.31,84.82-29.39l-2.43-2.24h0Z"/>
    <path class="st1" d="M61.51,108.2c1.71-.01,1.11-3.43.61-5.18-1.13-3.97-2.28-6.24-2.27-9.5.03-5.76.5-12.18,3.91-14.43.33-.22,1.89-.5,2.81.01,2.46,1.39,1.44,7.69,1.02,9.75-.84,4.16-1.56,4.88-2.85,9.17s-.69,7.15-1.45,11.04c-.76,3.91-.69,2-3.68,10.79-2.01,5.93-2.36,15.47-4.02,38.4,0,.17.12.31.28.32,9.76.24,19.52.47,29.28.71.17,0,.31-.14.29-.31-1.84-22.67-2.48-44.17-2.63-47.07,0,0-.61-11.49.72-23.88.17-1.58,1.69-3.72,3.02-3.26,1.83.64,1.6,3.1,2.69,6.58,3.46,11.05,3.34,12.61,5.71,15.82,3.65,4.94,6.8,4.73,11.73,6.43,2.81.96,2.25,13.22-.54,23.78-1.52,5.74-5.32,22.44-3.87,24.46.44.61,1.59.68,2.31.18,1.82-1.25,4.3-20.17,4.81-22.35.57-2.39,2.57-6.69,4.71-5.9,4.57,1.68,4.22,20.6,4.43,22.34.27,2.24,1.32,5.57,3.42,3.93,1.45-.7.6-16.23-1.53-29.31-.31-2.17-1.04-3.81-1.16-8.4-.06-2.49-.06-6.13,2.13-5.68,1.73.36,2.22,7.25,3.25,10.59.26.83,1.54.84,1.57-.12.11-3.5.09-9.21-3.62-15.44-1.47-2.46-3.78-3.64-5.25-4.42-.17-.09-.2-.26-.07-.41.82-.93,2.15-2.75,2.43-5.3.36-3.24-.34-7.25-3.26-7.84-3.05-.62-5.28,2.98-5.43,6.15-.18,3.86,2,4.79,1.21,6.91-.69,1.86-3.15,2.14-4.64,2.38-4.94.79-9.39-4.45-10.19-5.43-5.98-7.32-2.12-14.11-6.87-24.74-2.02-4.5-4.71-7.76-6.74-9.85-.27-.28-.22-.65.11-.85,1.52-.92,4.17-2.9,5.73-6.41.41-.91,1.81-4.56.83-9.11-.54-2.48-2.72-7.05-8.19-6.45-3.99.44-5.76,5.97-6.06,8.3-.73,5.63,1.27,8.61-.69,11.11-1.8,2.29-4.21,1.12-7.84,2.77-5.83,2.66-8.01,9.51-9.89,15.44-1.3,4.1-2.67,9.88-.67,16.4,1.04,3.37,2.72,7.89,4.36,7.88h.04Z"/>
    <g>
      <path class="st3" d="M140.28,161.77c-.69,0-1.26-.52-1.33-1.21l-5.44-60.81c-.06-.73.48-1.38,1.21-1.45h.11c.69,0,1.28.53,1.34,1.21l5.44,60.81c.03.35-.08.7-.3.97s-.55.44-.9.47h-.13Z"/>
      <path class="st5" d="M134.83,98.68c.48,0,.9.36.95.85l5.44,60.81c.05.52-.34.97-.85,1.02h-.09c-.48,0-.89-.37-.93-.86l-5.44-60.81c-.05-.52.34-.97.85-1.02h.07M134.83,97.9h-.13c-.47.04-.88.26-1.18.61-.29.35-.43.8-.39,1.26l5.44,60.81c.08.9.82,1.57,1.72,1.57h.17c.93-.08,1.63-.92,1.55-1.87l-5.44-60.81c-.08-.88-.84-1.57-1.73-1.57h-.01Z"/>
    </g>
    <path class="st2" d="M161.22,110.2c9.6,0,2.91,9.05,8.15,32.4,2.5,11.14,3.87,14.13,5.53,16.22,2.12,2.66,7.49.36,6.4-3.29-3.24-10.86-5.61-21.66-8.76-42.64-3.38-22.45,3.54-43.66-5.51-50.12-2.45-1.75-5.39.26-7.11-2-2.34-3.08.77-7.32.15-12.52-.47-3.98-3.19-7.16-7.21-7.12-3.65.03-6.83,5.15-6.79,10.47.04,5.63,2.32,10.12,6.02,10.5.18.02.15.31,0,.4-2.21,1.41-5.82,3.84-7.77,7.28-3.06,5.4-.86,7.83-3.32,14.33-3.09,8.18-5.55,10.62-7.69,14.63-.76,1.43,1.42,2.97,2.57,1.67,4.06-4.65,6.37-8.79,8.45-15.24,2.27-7.03,2.31-9.75,3.32-9.81,2.01-.12,5.16,10.49,5.58,21.42.17,4.51-.14,8.52-3.32,23.99-4.87,23.69-4.02,36.36-2.91,38.47.95,1.79,5.53,1.55,6.33-.51,1.3-3.36-2.2-15.4.66-32.22,1.36-8,2.41-16.3,7.24-16.3h0Z"/>
    <path class="st3" d="M140.28,161.37c-.48,0-.89-.37-.93-.86l-5.44-60.81c-.05-.52.34-.97.85-1.02.51-.04.97.34,1.02.85l5.44,60.81c.05.52-.34.97-.85,1.02h-.09Z"/>
  </g>
</svg>